<svg width="900" height="900" viewBox="0 0 900 900" fill="none" xmlns="http://www.w3.org/2000/svg">
<g clip-path="url(#clip0_160_18)">
<mask id="mask0_160_18" style="mask-type:luminance" maskUnits="userSpaceOnUse" x="0" y="0" width="900" height="900">
<path d="M899.363 0.503174H0.363281V899.503H899.363V0.503174Z" fill="white"/>
</mask>
<g mask="url(#mask0_160_18)">
<path d="M706.363 450.503C706.363 591.79 591.65 706.503 450.363 706.503C309.077 706.503 194.363 591.79 194.363 450.503C194.363 309.217 309.077 194.503 450.363 194.503C591.65 194.503 706.363 309.217 706.363 450.503Z" fill="black"/>
<path d="M450.363 351.503C505.001 351.503 549.363 395.865 549.363 450.503C549.363 505.141 505.001 549.503 450.363 549.503C395.725 549.503 351.363 505.141 351.363 450.503C351.363 395.865 395.725 351.503 450.363 351.503Z" stroke="white" stroke-width="52"/>
<path d="M541.411 560.551C534.423 567.54 523.075 567.54 516.087 560.551L485.025 529.49C478.037 522.501 478.037 511.154 485.025 504.165C492.013 497.177 503.361 497.177 510.349 504.165L541.411 535.227C548.399 542.215 548.399 553.563 541.411 560.551Z" fill="black"/>
<path d="M541.411 560.551C534.423 567.54 523.075 567.54 516.087 560.551L485.025 529.49C478.037 522.501 478.037 511.154 485.025 504.165C492.013 497.177 503.361 497.177 510.349 504.165L541.411 535.227C548.399 542.215 548.399 553.563 541.411 560.551Z" fill="#00FF09"/>
</g>
</g>
<defs>
<clipPath id="clip0_160_18">
<rect width="899" height="899" fill="white" transform="translate(0.363281 0.503174)"/>
</clipPath>
</defs>
</svg>
